<mxfile host="Electron" agent="Mozilla/5.0 (Windows NT 10.0; Win64; x64) AppleWebKit/537.36 (KHTML, like Gecko) draw.io/24.7.17 Chrome/128.0.6613.36 Electron/32.0.1 Safari/537.36" version="24.7.17">
  <diagram name="Seite-1" id="FO3jFVH_FwHL9DCPXZKm">
    <mxGraphModel dx="922" dy="688" grid="1" gridSize="10" guides="1" tooltips="1" connect="1" arrows="1" fold="1" page="1" pageScale="1" pageWidth="827" pageHeight="1169" math="0" shadow="0">
      <root>
        <mxCell id="0" />
        <mxCell id="1" parent="0" />
        <mxCell id="FEqrRb-4iLtbofaRR3r0-1" value="Unternehmenszentrale" style="shape=umlActor;verticalLabelPosition=bottom;verticalAlign=top;html=1;" vertex="1" parent="1">
          <mxGeometry x="210" y="285" width="30" height="60" as="geometry" />
        </mxCell>
        <mxCell id="FEqrRb-4iLtbofaRR3r0-2" value="" style="swimlane;startSize=0;" vertex="1" parent="1">
          <mxGeometry x="350" y="130" width="750" height="420" as="geometry">
            <mxRectangle x="360" y="120" width="50" height="40" as="alternateBounds" />
          </mxGeometry>
        </mxCell>
        <mxCell id="FEqrRb-4iLtbofaRR3r0-3" value="Leistungskennziffern definieren" style="ellipse;whiteSpace=wrap;html=1;" vertex="1" parent="FEqrRb-4iLtbofaRR3r0-2">
          <mxGeometry x="65" y="40" width="140" height="70" as="geometry" />
        </mxCell>
        <mxCell id="FEqrRb-4iLtbofaRR3r0-4" value="Leistungskennziffern der einzelnen Mietstationen auswerten" style="ellipse;whiteSpace=wrap;html=1;" vertex="1" parent="FEqrRb-4iLtbofaRR3r0-2">
          <mxGeometry x="45" y="290" width="180" height="80" as="geometry" />
        </mxCell>
        <mxCell id="FEqrRb-4iLtbofaRR3r0-5" value="Performance-Dashboard erstellen" style="ellipse;whiteSpace=wrap;html=1;" vertex="1" parent="FEqrRb-4iLtbofaRR3r0-2">
          <mxGeometry x="60" y="150" width="150" height="70" as="geometry" />
        </mxCell>
        <mxCell id="FEqrRb-4iLtbofaRR3r0-13" value="Daten exportieren" style="ellipse;whiteSpace=wrap;html=1;" vertex="1" parent="FEqrRb-4iLtbofaRR3r0-2">
          <mxGeometry x="570" y="295" width="140" height="70" as="geometry" />
        </mxCell>
        <mxCell id="FEqrRb-4iLtbofaRR3r0-7" value="Daten importieren" style="ellipse;whiteSpace=wrap;html=1;" vertex="1" parent="FEqrRb-4iLtbofaRR3r0-2">
          <mxGeometry x="327" y="295" width="140" height="70" as="geometry" />
        </mxCell>
        <mxCell id="FEqrRb-4iLtbofaRR3r0-14" value="&amp;lt;&amp;lt;include&amp;gt;&amp;gt;" style="html=1;verticalAlign=bottom;labelBackgroundColor=none;endArrow=open;endFill=0;dashed=1;rounded=0;entryX=0;entryY=0.5;entryDx=0;entryDy=0;" edge="1" parent="FEqrRb-4iLtbofaRR3r0-2" target="FEqrRb-4iLtbofaRR3r0-7">
          <mxGeometry width="160" relative="1" as="geometry">
            <mxPoint x="230" y="330" as="sourcePoint" />
            <mxPoint x="390" y="330" as="targetPoint" />
          </mxGeometry>
        </mxCell>
        <mxCell id="FEqrRb-4iLtbofaRR3r0-16" value="&amp;lt;&amp;lt;include&amp;gt;&amp;gt;" style="html=1;verticalAlign=bottom;labelBackgroundColor=none;endArrow=open;endFill=0;dashed=1;rounded=0;entryX=0;entryY=0.5;entryDx=0;entryDy=0;" edge="1" parent="FEqrRb-4iLtbofaRR3r0-2" target="FEqrRb-4iLtbofaRR3r0-13">
          <mxGeometry width="160" relative="1" as="geometry">
            <mxPoint x="470" y="330" as="sourcePoint" />
            <mxPoint x="530" y="330" as="targetPoint" />
          </mxGeometry>
        </mxCell>
        <mxCell id="FEqrRb-4iLtbofaRR3r0-22" value="" style="edgeStyle=none;html=1;endArrow=none;verticalAlign=bottom;rounded=0;entryX=0.021;entryY=0.587;entryDx=0;entryDy=0;entryPerimeter=0;exitX=0.5;exitY=0.5;exitDx=0;exitDy=0;exitPerimeter=0;" edge="1" parent="1" source="FEqrRb-4iLtbofaRR3r0-1" target="FEqrRb-4iLtbofaRR3r0-3">
          <mxGeometry width="160" relative="1" as="geometry">
            <mxPoint x="220" y="310" as="sourcePoint" />
            <mxPoint x="380" y="310" as="targetPoint" />
          </mxGeometry>
        </mxCell>
        <mxCell id="FEqrRb-4iLtbofaRR3r0-23" value="" style="edgeStyle=none;html=1;endArrow=none;verticalAlign=bottom;rounded=0;entryX=0;entryY=0.5;entryDx=0;entryDy=0;exitX=0.5;exitY=0.5;exitDx=0;exitDy=0;exitPerimeter=0;" edge="1" parent="1" source="FEqrRb-4iLtbofaRR3r0-1" target="FEqrRb-4iLtbofaRR3r0-5">
          <mxGeometry width="160" relative="1" as="geometry">
            <mxPoint x="230" y="310" as="sourcePoint" />
            <mxPoint x="390" y="320" as="targetPoint" />
          </mxGeometry>
        </mxCell>
        <mxCell id="FEqrRb-4iLtbofaRR3r0-24" value="" style="edgeStyle=none;html=1;endArrow=none;verticalAlign=bottom;rounded=0;exitX=0.5;exitY=0.5;exitDx=0;exitDy=0;exitPerimeter=0;" edge="1" parent="1" source="FEqrRb-4iLtbofaRR3r0-1" target="FEqrRb-4iLtbofaRR3r0-4">
          <mxGeometry width="160" relative="1" as="geometry">
            <mxPoint x="260" y="350" as="sourcePoint" />
            <mxPoint x="420" y="350" as="targetPoint" />
          </mxGeometry>
        </mxCell>
      </root>
    </mxGraphModel>
  </diagram>
</mxfile>
